# xmcd
#
# Track frame offsets:
#	150
#	13375
#	27766
#	42854
#	58672
#	73053
#	85375
#	101941
#	116514
#	132370
#
# Disc length: 1960 seconds
#
# Revision: 0
# Processed by: cddbd v1.4PL0 Copyright (c) Steve Scherf et al.
# Submitted via: dBpowerAMP V4.0
#
DISCID=8d07a60a
DTITLE=Beckah Kubicek - Under The Surface
DYEAR=2002
DGENRE=Country
TTITLE0=9-1-1
TTITLE1=Out On Her Own
TTITLE2=Let's Compromise
TTITLE3=I've Got To
TTITLE4=Money Makes The Man
TTITLE5=Under The Surface
TTITLE6=Burning Out Of Control
TTITLE7=Who's Gonna Turn The Light Out
TTITLE8=In Case You Haven't Noticed
TTITLE9=Is It Over
EXTD=
EXTT0=
EXTT1=
EXTT2=
EXTT3=
EXTT4=
EXTT5=
EXTT6=
EXTT7=
EXTT8=
EXTT9=
PLAYORDER=
